<?xml version="1.0" encoding="utf-8"?>
<!-- Generator: Adobe Illustrator 18.0.0, SVG Export Plug-In . SVG Version: 6.00 Build 0)  -->
<!DOCTYPE svg PUBLIC "-//W3C//DTD SVG 1.1//EN" "http://www.w3.org/Graphics/SVG/1.1/DTD/svg11.dtd">
<svg version="1.1" id="Layer_1" xmlns="http://www.w3.org/2000/svg" xmlns:xlink="http://www.w3.org/1999/xlink" x="0px" y="0px"
	 viewBox="0 0 560 560" enable-background="new 0 0 560 560" xml:space="preserve">
<g>
	<g>
		<g>
			<g>
				<g>
					<g>
						<polygon fill="#BF1311" points="529.9,236.1 278.7,342.8 281.4,332.5 408.7,203.6 363.9,26.2 366.5,17.2 						"/>
					</g>
				</g>
			</g>
		</g>
		<g>
			<g>
				<polygon fill="#ED1D1C" points="458.9,217.2 279.6,338.7 365.7,19.9 				"/>
			</g>
		</g>
		<g>
			<path fill="#231F20" d="M306,560H125.3c-26.3-34.3-22.7-50.9-21.6-55.3l0-0.2l0.3-0.9c14.4-53.2,64.9-87.2,118-82.5L332.1,12.7
				c2.5-9.2,11.8-14.6,21-12s14.6,11.8,12,21l-110,407.6c48.6,20.2,72.5,65.4,68.4,114.3C323,550.2,313.5,560.1,306,560z"/>
		</g>
	</g>
</g>
<line fill="none" stroke="#BF1311" stroke-width="38" stroke-linecap="round" stroke-miterlimit="10" x1="22.2" y1="21.3" x2="539.6" y2="541.9"/>
</svg>
