<?xml version="1.0" encoding="utf-8"?>
<!-- Generator: Adobe Illustrator 18.0.0, SVG Export Plug-In . SVG Version: 6.00 Build 0)  -->
<!DOCTYPE svg PUBLIC "-//W3C//DTD SVG 1.1//EN" "http://www.w3.org/Graphics/SVG/1.1/DTD/svg11.dtd">
<svg version="1.1" id="Layer_1" xmlns="http://www.w3.org/2000/svg" xmlns:xlink="http://www.w3.org/1999/xlink" x="0px" y="0px"
	 viewBox="200 0 560 560" enable-background="new 200 0 560 560" xml:space="preserve">
<g>
	<g>
		<g>
			<g>
				<g>
					<g>
						<polygon fill="#BF1311" points="710.6,181.6 495.6,349.8 495.6,339.2 585.1,181.6 496,22 496.1,12.6 						"/>
					</g>
				</g>
			</g>
		</g>
		<g>
			<g>
				<polygon fill="#ED1D1C" points="637.2,181.8 495.5,345.6 496.1,15.3 				"/>
			</g>
		</g>
		<g>
			<path fill="#231F20" d="M592.7,550.7l0,0.9c0,0,0.1,0.2-0.1,0.2c-0.1,4.6-3.8,8.4-8.6,8.3l-207.1-0.4c-4.6-0.1-8.4-3.8-8.4-8.4
				l-0.1-0.2l0-0.9c0.1-55.1,40.1-101.1,92.7-110.2l0.6-423.1c0.1-9.5,7.6-17.1,17.2-17.1c9.5,0.1,17.1,7.6,17.1,17.2l-0.8,422.2
				C550.3,446.7,593,493.9,592.7,550.7z"/>
		</g>
	</g>
</g>
</svg>
