<?xml version="1.0" encoding="utf-8"?>
<!DOCTYPE svg PUBLIC "-//W3C//DTD SVG 1.1//EN" "http://www.w3.org/Graphics/SVG/1.1/DTD/svg11.dtd">
<svg version="1.1" id="Layer_1" xmlns="http://www.w3.org/2000/svg" xmlns:xlink="http://www.w3.org/1999/xlink" x="0px" y="0px"
	 viewBox="0 0 460 407" enable-background="new 0 0 460 407" xml:space="preserve">
<g>
	<g>
		<path d="M460,204c0,16.6-13.4,30-30,30h-26.1c-7.3,42-29.6,78.9-61.2,105l13.4,23.1c8.3,14.4,3.3,32.6-11,40.9
			c-4.7,2.7-9.9,4-15,4c-10.4,0-20.5-5.4-26-15l-13.5-23.4C272,375.3,251.9,379,231,379c-21.5,0-42.1-3.9-61.1-11l-13.8,24
			c-5.5,9.6-15.6,15-26,15c-5.1,0-10.2-1.3-15-4c-14.4-8.3-19.3-26.6-11-41l14-24c-31-26.1-52.8-63-60-104H30c-16.6,0-30-13.4-30-30
			s13.4-30,30-30h28.1c7.2-42,29-78.4,60-104.5l-14-24.4c-8.3-14.3-3.4-32.8,11-41c14.4-8.3,32.7-3.4,41,11L169.9,39
			c19-7.1,39.6-11,61.1-11c20.9,0,41,3.7,59.6,10.4L304.1,15c8.3-14.3,26.6-19.3,41-11c14.3,8.3,19.3,26.6,11,41l-13.4,23.5
			c31.6,26.2,54,62.5,61.2,105.5H430C446.6,174,460,187.4,460,204z"/>
	</g>
	<circle fill="#FFFFFF" cx="175.5" cy="157" r="27.5"/>
</g>
</svg>
