<?xml version="1.0" encoding="utf-8"?>
<!-- Generator: Adobe Illustrator 18.0.0, SVG Export Plug-In . SVG Version: 6.00 Build 0)  -->
<!DOCTYPE svg PUBLIC "-//W3C//DTD SVG 1.1//EN" "http://www.w3.org/Graphics/SVG/1.1/DTD/svg11.dtd">
<svg version="1.1" id="Layer_1" xmlns="http://www.w3.org/2000/svg" xmlns:xlink="http://www.w3.org/1999/xlink" x="0px" y="0px"
	 viewBox="0 0 560 560" enable-background="new 0 0 560 560" xml:space="preserve">
<g>
	<path fill="#231F20" d="M256.6,391.9c-5.6,0-10.1-4.5-10.1-10.1v-3.6c0-11,0.7-19.9,2-26.7c1.3-6.7,3.7-13.9,7.1-21.6
		c3.4-7.7,8.6-16.8,15.8-27.3c7.1-10.5,17.3-24,30.5-40.4c15.6-19.9,26.9-36.1,33.7-48.5c6.9-12.4,12.1-25.3,15.6-38.6
		c3.5-13.3,5.3-28.2,5.3-44.7c0-20.7-2.8-38.3-8.5-52.7c-5.7-14.4-13.6-25.3-23.8-32.5c-10.2-7.3-22.1-10.9-35.6-10.9
		c-21.3,0-38.3,6.3-51.1,19c-11.5,11.3-19.7,27.7-24.8,49.2c-1.1,4.6-5.1,7.8-9.8,7.8H166c-5.6,0-10.1-4.5-10.1-10.1v-50
		c0-3.8,2.2-7.3,5.6-9C189.8,27,214,17,234.1,11.2c21.4-6.2,42.5-9.3,63.2-9.3c32.3,0,59.1,4.8,80.2,14.5
		c21.1,9.7,36.5,22.9,46.1,39.6c9.6,16.7,14.3,36,14.3,57.8c0,11.1-1,21.2-3,30.5c-2,9.3-5.1,18.4-9.1,27.3s-9.2,18-15.4,27.3
		c-6.2,9.3-13.1,18.7-20.8,28.1c-7.7,9.4-21.1,25.3-40.2,47.7c-14.3,16.7-24.7,30.1-31.1,40.2c-6.5,10.1-11.1,19.9-13.7,29.5
		c-2.7,9.6-4,22-4,37.4l0,0c0,5.6-4.5,10.1-10.1,10.1H256.6z M314.7,476.3v73.6c0,5.6-4.5,10.1-10.1,10.1H244
		c-5.6,0-10.1-4.5-10.1-10.1v-73.6c0-5.6,4.5-10.1,10.1-10.1h60.6C310.2,466.2,314.7,470.8,314.7,476.3z"/>
</g>
</svg>
