<?xml version="1.0" encoding="utf-8"?>
<!-- Generator: Adobe Illustrator 18.0.0, SVG Export Plug-In . SVG Version: 6.00 Build 0)  -->
<!DOCTYPE svg PUBLIC "-//W3C//DTD SVG 1.1//EN" "http://www.w3.org/Graphics/SVG/1.1/DTD/svg11.dtd">
<svg version="1.1" id="Layer_1" xmlns="http://www.w3.org/2000/svg" xmlns:xlink="http://www.w3.org/1999/xlink" x="0px" y="0px"
	 viewBox="271.5 10 420 540" enable-background="new 271.5 10 420 540" xml:space="preserve">
<g>
	<path fill="none" d="M479.1,498.2c0-0.2,0-0.5,0-0.7"/>
	<path d="M687.7,387.6c0,5.5-1.4,9.9-5.8,20.3c-7.6,16.5-30.1,57.4-56.7,131.6L482.6,550h-0.5l-142.6-10.3
		C313,465.3,283.1,409,282.9,408.1c-1.7-3.4-5.4-12.6-5.6-20.5c0-7.3,2.3-14.9,6.4-22.6c9.6-18,29.2-36.5,52.6-54
		c36.6-27.3,82.4-51.8,114.1-67c21,40.8,25.9,135.1,28.2,243.8c0,0,0,0.2,0.2,0.7c1.2,2.6,5.1,2.6,5.8-0.2v-0.2
		c3.7-109,7.9-203.2,28.9-244.1c23.3,10,66.9,34.6,104.5,62.4c26.9,19.8,50.8,41.2,62.3,60C685.1,374.1,687.7,381.2,687.7,387.6z"/>
	<path fill="none" d="M479.6,498.2"/>
	<path d="M577.2,41.1H380.9c-5.1,0-9.3-3.5-9.3-7.7l0,0c0-4.2,4.2-7.7,9.3-7.7h196.2c5.1,0,9.3,3.5,9.3,7.7l0,0
		C586.3,37.6,582.3,41.1,577.2,41.1z"/>
	<path d="M627.1,66.7c0,1.4-0.7,2.7-1.6,3.5c-0.9,1-2.3,1.8-3.7,1.8L516,84.3h-13.5h-59L340.3,71.8c-3,0-5.4-2.5-5.4-5.3
		c0-1.4,0.7-2.5,1.6-3.5c0.9-1,2.3-1.2,3.7-1.2h281.6C624.7,61.8,627.1,63.8,627.1,66.7z"/>
	<path d="M647.3,268c0,0.1-0.1,0.2-0.2,0.2l-15.6,0.9c-1.4,0-2.3,1.4-1.9,2.8l8.7,30.5c0,0.2-0.1,0.3-0.3,0.2
		c-7.1-5.7-14.4-11.4-22.4-17.1c-15.4-11-52.3-33.1-53-33.4c-9.1-4.9-68.4-34.8-72.1-36.4c-0.5-0.2-6.1-2.6-6.1-2.6
		c-0.5-0.2-0.9-0.2-1.2-0.5c-0.5-0.2-2-0.7-2.5-0.9c0,0,0,0-0.1,0c-0.4,0.1-2.1,0.7-2.5,0.9c-0.5,0-0.7,0.2-0.9,0.2
		c-0.9,0.5-1.9,0.7-2.1,0.9c-0.7,0.2-11.9,5.1-16.3,7.2c-0.2,0-50.9,26.1-60,31c-0.7,0.2-37.3,22.4-53,33.4
		c-7.8,5.7-15.3,11.4-22.4,17.1c-0.1,0.1-0.3,0-0.3-0.2l8.7-30.5c0.5-1.4-0.7-2.8-2.1-2.8l-15.6-0.9c-0.1,0-0.2-0.1-0.2-0.2
		c0.5-2.9,6.5-39.4,8.7-39.4c13-0.1,31,0.1,50.1,0.3l4.9-21.7c0.5-1.6,1.9-2.1,3.7-2.1h2c0.1,0,0.1,0,0.2-0.1l1.7-2.6
		c0-0.1,0-0.2,0-0.2c-2.3-3-1.6-6.8-1.9-10.4c-0.3-4,1.3-8,4.5-10.5c14.6-11.3,30.5-0.7,30.5,13.2c0,2.8-0.7,5.8-1.8,8.1
		c0,0.1,0,0.1,0,0.2l1.3,2.2c0,0,0.1,0.1,0.1,0.1h17.4c0-0.2,0-0.2,0.2-0.5l18.7-41.1l1.6-3.3c0.7-1.4,1.9-1.9,3.3-1.9h7.5
		c0.1,0,0.2-0.1,0.2-0.2V21.3c0-1,0.5-1.9,1.3-2.4l8.6-6.2c2.3-1.6,5.3-1.7,7.7-0.2l8.6,5.6c1.2,0.7,1.8,2,1.8,3.4v136.6
		c0,0.1,0.1,0.2,0.2,0.2h5.9c1.4,0,2.8,0.5,3.3,1.9l1.6,3.5l18.7,41.1c0,0.2,0,0.2,0.2,0.5h19.3c0.1,0,0.1,0,0.2-0.1l0.8-1.5
		c0,0,0-0.1,0-0.2c-1.4-2.6-2-6-2-9c0-13.4,14.8-23.3,29-14.2c2.7,1.7,4.6,4.4,5.4,7.4c1.3,4.6,1.7,9.9-0.5,14.4c0,0,0,0.1,0,0.2
		l1.8,2.9c0,0,0.1,0.1,0.2,0.1h1.3c1.9,0,3.3,0.2,3.7,2.1l4.9,21.5c0,0,0,0,0,0.2c18.7-0.2,37.3-0.4,50.5-0.3
		C641.8,228.6,646.9,265.1,647.3,268z"/>
	<line fill="none" stroke="#000000" stroke-width="8" stroke-miterlimit="10" x1="467" y1="81.2" x2="418" y2="204.9"/>
	<line fill="none" stroke="#000000" stroke-width="8" stroke-miterlimit="10" x1="495" y1="81.2" x2="544.2" y2="204.9"/>
	<path fill="#FFFFFF" d="M435,225.1h-11.4c-2.8,0-5.4-2.3-5.4-5.4l0,0c0-2.8,2.3-5.4,5.4-5.4H435c2.8,0,5.1,2.3,5.1,5.4l0,0
		C440.2,222.7,437.8,225.1,435,225.1z"/>
	<path fill="#FFFFFF" d="M535.6,225.1h-11.4c-2.8,0-5.4-2.3-5.4-5.4l0,0c0-2.8,2.3-5.4,5.4-5.4h11.4c2.8,0,5.4,2.3,5.4,5.4l0,0
		C541,222.7,538.6,225.1,535.6,225.1z"/>
	<path fill="#FFFFFF" d="M567.8,225.1h-11.4c-2.8,0-5.4-2.3-5.4-5.4l0,0c0-2.8,2.3-5.4,5.4-5.4h11.4c2.8,0,5.4,2.3,5.4,5.4l0,0
		C573.2,222.7,570.8,225.1,567.8,225.1z"/>
	<path fill="#FFFFFF" d="M404.8,225.1h-11.4c-2.8,0-5.1-2.3-5.1-5.4l0,0c0-2.8,2.3-5.4,5.1-5.4h11.4c2.8,0,5.1,2.3,5.1,5.4l0,0
		C410.1,222.7,407.8,225.1,404.8,225.1z"/>
	<g>
		<path fill="#FFFFFF" d="M579.5,372c-4.8-1-7.9-5.4-7-9.8c0.5-3.8,1.7-7.7,2.5-11.6c0.3-0.5,0.3-1.4,1.2-1.4c3.6-0.1,3-2.2,2.6-4.4
			c-0.4-3.8-2.2-7.4-4.6-10.3c-1.2-1.6-2.1-1.9-3.6-0.5c-3.5,3.3-5.9,7.2-7,11.9c-0.3,0.6-0.6,1.9,0.3,1.9c4.2,0.5,2.1,3,2.2,4.9
			c0,0.5-0.3,0.8-0.3,1.4c-1.4,3.6-2.9,7.4-7,8.9c-3,1.1-3.9,0.3-3.6-2.7c0.2-5.8,1.2-19.2,1.6-30.4c6.6-2,11.8-10.6,12.2-21.3
			c0.4-12.1-5.4-22.4-13.5-22.8c-8.1-0.4-14.8,9.3-15.5,21.6c-0.4,10.1,3.3,18.6,9,21.8c-0.7,11.5-1.1,25.5-1.3,29.9
			c-0.3,1.4,0.7,3.3-0.8,3.9c-1.8,0.8-3.6-0.2-5.1-1.6c-1.5-1.3-2.4-3-3.1-4.9c-0.9-2.5-0.7-5.2-1.3-7.7c0.3-1.1,1.2-1.1,2.1-1.1
			c1.2,0,1.5-0.6,1.5-1.7c-0.7-4.9-2.8-9.3-6.2-13.1c-0.9-1.1-1.8-1.1-3,0c-3,3.1-5.3,6.4-6.1,10.8c-0.3,1.6-0.8,3.8,2.1,3.8
			c1.2,0,0.9,1.1,1.2,1.6c0.3,1.6,0.7,3.3,1,4.6c-0.2,3.8,1.3,7.4-0.1,11.2c-2.1,2.2-4.1,5.3-8,5.1c-1.2,0-1.5,1.1-1.5,2.2
			c0,1.4,0.9,2.2,2.1,2.2c2.1,0.2,4.2,0.2,6.3,0.2c5.1-0.3,8.4,2.1,10.6,6.4c0,1.1,0.6,2.2,0.4,3.3c-0.6,3,0.9,3.5,3.6,3.5
			c4.8-0.1,9.6,0.1,14.4,0.6c2.7,0.2,3.9-0.6,4.1-3.4c0.8-5.8,4.7-8.6,10.3-8.4c2.1,0,4.5,0.2,6.9,0.4c1.5,0.3,2.4-0.3,2.7-2
			C581.7,373.8,581.1,373,579.5,372z"/>
	</g>
	<path fill="#FFFFFF" d="M680.5,366.5c-11.5-18.8-35.4-40.2-62.3-60c-37.7-27.8-81.2-52.4-104.5-62.4
		c-21,40.8-25.2,135.1-28.9,244.1v0.2c-0.7,2.8-4.7,2.8-5.8,0.2c-0.2-0.5-0.2-0.7-0.2-0.7c-2.3-108.7-7.2-203-28.2-243.8
		c-31.7,15.2-77.5,39.7-114.1,67c-23.4,17.5-43,36-52.6,54c0-25.4-2.2-24.4,39.7-62.5c7.1-5.7,14.7-11.4,22.4-17.1
		c15.6-11,52.3-33.1,53-33.4c9.1-4.9,59.7-31,60-31c4.4-2.1,15.6-7,16.3-7.2c0.2-0.2,1.2-0.5,2.1-0.9c0.2,0,0.5-0.2,0.9-0.2
		c0.4-0.2,2.2-0.9,2.5-0.9c0,0,0.1,0,0.1,0c0.5,0.2,2.1,0.7,2.5,0.9c0.2,0.2,0.7,0.2,1.2,0.5c0,0,5.6,2.3,6.1,2.6
		c3.7,1.6,63,31.5,72.1,36.4c0.7,0.2,37.6,22.4,53,33.4c8,5.7,15.3,11.4,22.4,17.1c0.1,0.1,0.3,0,0.3-0.2
		C680.5,340.7,680.5,340.7,680.5,366.5z"/>
</g>
<path fill="none" d="M282.7,365.5c0-0.2,0-0.3,0-0.5"/>
</svg>
